<?xml version="1.0" standalone="no"?>
<!DOCTYPE svg PUBLIC "-//W3C//DTD SVG 20010904//EN"
 "http://www.w3.org/TR/2001/REC-SVG-20010904/DTD/svg10.dtd">
<svg version="1.0" xmlns="http://www.w3.org/2000/svg"
 width="260.000000pt" height="260.000000pt" viewBox="0 0 260.000000 260.000000"
 preserveAspectRatio="xMidYMid meet">
<metadata>
Created by potrace 1.14, written by Peter Selinger 2001-2017
</metadata>
<g transform="translate(0.000000,260.000000) scale(0.100000,-0.100000)"
fill="#000000" stroke="none">
<path d="M1084 2554 c-463 -78 -856 -421 -998 -872 -77 -246 -75 -533 5 -777
65 -195 157 -344 309 -496 198 -201 438 -323 711 -363 408 -60 800 70 1089
363 112 112 175 199 239 327 144 287 171 638 75 946 -124 394 -437 707 -833
832 -172 55 -415 71 -597 40z m976 -457 l0 -43 -65 -11 c-35 -6 -78 -21 -95
-33 -56 -40 -63 -67 -69 -266 -6 -176 -7 -182 -36 -239 -39 -77 -93 -118 -201
-151 -79 -25 -84 -28 -84 -54 0 -26 5 -29 84 -54 108 -33 162 -74 201 -151 29
-57 30 -63 35 -239 6 -186 11 -207 53 -254 18 -19 30 -22 99 -22 l78 0 0 -61
0 -62 -113 7 c-62 4 -131 11 -152 16 -22 5 -313 10 -647 10 l-608 0 0 45 0 45
90 0 c167 0 189 32 190 266 0 178 10 243 48 304 35 57 89 93 180 120 39 12 72
26 72 30 0 5 -19 14 -42 20 -113 30 -170 65 -210 130 -38 61 -48 127 -48 306
0 84 -5 165 -11 181 -22 59 -59 80 -171 98 -37 6 -38 7 -38 46 l0 40 43 -5
c23 -3 67 -8 97 -11 120 -14 206 -80 236 -181 11 -40 14 -95 12 -240 -3 -182
-2 -190 20 -226 28 -45 88 -75 176 -90 l66 -11 0 -57 0 -56 -72 -12 c-89 -15
-145 -45 -172 -92 -19 -32 -21 -51 -21 -245 0 -206 -1 -211 -26 -262 l-26 -53
329 0 c181 0 328 3 326 8 -55 107 -53 94 -53 312 0 187 -2 208 -20 239 -26 45
-79 71 -170 84 l-75 10 0 68 0 67 63 7 c94 10 161 46 187 100 21 42 21 53 15
213 -6 139 -5 177 8 222 41 139 141 202 354 219 177 15 163 17 163 -32z"/>
</g>
</svg>
